<svg width="391" height="54" viewBox="0 0 391 54" fill="none" xmlns="http://www.w3.org/2000/svg">
<path d="M70.2855 11.96V16.16H75.9255V18.824H70.2855V23.264H76.6455V26H66.9255V9.224H76.6455V11.96H70.2855ZM78.835 19.304C78.835 17.96 79.099 16.768 79.627 15.728C80.171 14.688 80.899 13.888 81.811 13.328C82.739 12.768 83.771 12.488 84.907 12.488C85.899 12.488 86.763 12.688 87.499 13.088C88.251 13.488 88.851 13.992 89.299 14.6V12.704H92.683V26H89.299V24.056C88.867 24.68 88.267 25.2 87.499 25.616C86.747 26.016 85.875 26.216 84.883 26.216C83.763 26.216 82.739 25.928 81.811 25.352C80.899 24.776 80.171 23.968 79.627 22.928C79.099 21.872 78.835 20.664 78.835 19.304ZM89.299 19.352C89.299 18.536 89.139 17.84 88.819 17.264C88.499 16.672 88.067 16.224 87.523 15.92C86.979 15.6 86.395 15.44 85.771 15.44C85.147 15.44 84.571 15.592 84.043 15.896C83.515 16.2 83.083 16.648 82.747 17.24C82.427 17.816 82.267 18.504 82.267 19.304C82.267 20.104 82.427 20.808 82.747 21.416C83.083 22.008 83.515 22.464 84.043 22.784C84.587 23.104 85.163 23.264 85.771 23.264C86.395 23.264 86.979 23.112 87.523 22.808C88.067 22.488 88.499 22.04 88.819 21.464C89.139 20.872 89.299 20.168 89.299 19.352ZM101.053 26.216C99.9646 26.216 98.9886 26.024 98.1246 25.64C97.2606 25.24 96.5726 24.704 96.0606 24.032C95.5646 23.36 95.2926 22.616 95.2446 21.8H98.6286C98.6926 22.312 98.9406 22.736 99.3726 23.072C99.8206 23.408 100.373 23.576 101.029 23.576C101.669 23.576 102.165 23.448 102.517 23.192C102.885 22.936 103.069 22.608 103.069 22.208C103.069 21.776 102.845 21.456 102.397 21.248C101.965 21.024 101.269 20.784 100.309 20.528C99.3166 20.288 98.5006 20.04 97.8606 19.784C97.2366 19.528 96.6926 19.136 96.2286 18.608C95.7806 18.08 95.5566 17.368 95.5566 16.472C95.5566 15.736 95.7646 15.064 96.1806 14.456C96.6126 13.848 97.2206 13.368 98.0046 13.016C98.8046 12.664 99.7406 12.488 100.813 12.488C102.397 12.488 103.661 12.888 104.605 13.688C105.549 14.472 106.069 15.536 106.165 16.88H102.949C102.901 16.352 102.677 15.936 102.277 15.632C101.893 15.312 101.373 15.152 100.717 15.152C100.109 15.152 99.6366 15.264 99.3006 15.488C98.9806 15.712 98.8206 16.024 98.8206 16.424C98.8206 16.872 99.0446 17.216 99.4926 17.456C99.9406 17.68 100.637 17.912 101.581 18.152C102.541 18.392 103.333 18.64 103.957 18.896C104.581 19.152 105.117 19.552 105.565 20.096C106.029 20.624 106.269 21.328 106.285 22.208C106.285 22.976 106.069 23.664 105.637 24.272C105.221 24.88 104.613 25.36 103.813 25.712C103.029 26.048 102.109 26.216 101.053 26.216ZM121.763 12.704L113.531 32.288H109.955L112.835 25.664L107.507 12.704H111.275L114.707 21.992L118.187 12.704H121.763ZM151.685 9.248L147.005 26H143.045L139.901 14.072L136.613 26L132.677 26.024L128.165 9.248H131.765L134.717 22.256L138.125 9.248H141.869L145.085 22.184L148.061 9.248H151.685ZM153.015 19.304C153.015 17.96 153.279 16.768 153.807 15.728C154.351 14.688 155.079 13.888 155.991 13.328C156.919 12.768 157.951 12.488 159.087 12.488C160.079 12.488 160.943 12.688 161.679 13.088C162.431 13.488 163.031 13.992 163.479 14.6V12.704H166.863V26H163.479V24.056C163.047 24.68 162.447 25.2 161.679 25.616C160.927 26.016 160.055 26.216 159.063 26.216C157.943 26.216 156.919 25.928 155.991 25.352C155.079 24.776 154.351 23.968 153.807 22.928C153.279 21.872 153.015 20.664 153.015 19.304ZM163.479 19.352C163.479 18.536 163.319 17.84 162.999 17.264C162.679 16.672 162.247 16.224 161.703 15.92C161.159 15.6 160.575 15.44 159.951 15.44C159.327 15.44 158.751 15.592 158.223 15.896C157.695 16.2 157.263 16.648 156.927 17.24C156.607 17.816 156.447 18.504 156.447 19.304C156.447 20.104 156.607 20.808 156.927 21.416C157.263 22.008 157.695 22.464 158.223 22.784C158.767 23.104 159.343 23.264 159.951 23.264C160.575 23.264 161.159 23.112 161.703 22.808C162.247 22.488 162.679 22.04 162.999 21.464C163.319 20.872 163.479 20.168 163.479 19.352ZM174.056 15.464V21.896C174.056 22.344 174.16 22.672 174.368 22.88C174.592 23.072 174.96 23.168 175.472 23.168H177.032V26H174.92C172.088 26 170.672 24.624 170.672 21.872V15.464H169.088V12.704H170.672V9.416H174.056V12.704H177.032V15.464H174.056ZM178.585 19.352C178.585 17.976 178.865 16.776 179.425 15.752C179.985 14.712 180.761 13.912 181.753 13.352C182.745 12.776 183.881 12.488 185.161 12.488C186.809 12.488 188.169 12.904 189.241 13.736C190.329 14.552 191.057 15.704 191.425 17.192H187.801C187.609 16.616 187.281 16.168 186.817 15.848C186.369 15.512 185.809 15.344 185.137 15.344C184.177 15.344 183.417 15.696 182.857 16.4C182.297 17.088 182.017 18.072 182.017 19.352C182.017 20.616 182.297 21.6 182.857 22.304C183.417 22.992 184.177 23.336 185.137 23.336C186.497 23.336 187.385 22.728 187.801 21.512H191.425C191.057 22.952 190.329 24.096 189.241 24.944C188.153 25.792 186.793 26.216 185.161 26.216C183.881 26.216 182.745 25.936 181.753 25.376C180.761 24.8 179.985 24 179.425 22.976C178.865 21.936 178.585 20.728 178.585 19.352ZM201.374 12.512C202.382 12.512 203.278 12.736 204.062 13.184C204.846 13.616 205.454 14.264 205.886 15.128C206.334 15.976 206.558 17 206.558 18.2V26H203.198V18.656C203.198 17.6 202.934 16.792 202.406 16.232C201.878 15.656 201.158 15.368 200.246 15.368C199.318 15.368 198.582 15.656 198.038 16.232C197.51 16.792 197.246 17.6 197.246 18.656V26H193.886V8.24H197.246V14.36C197.678 13.784 198.254 13.336 198.974 13.016C199.694 12.68 200.494 12.512 201.374 12.512ZM226.872 9.248V11.96H222.408V26H219.048V11.96H214.584V9.248H226.872ZM231.028 11.12C230.436 11.12 229.94 10.936 229.54 10.568C229.156 10.184 228.964 9.712 228.964 9.152C228.964 8.592 229.156 8.128 229.54 7.76C229.94 7.376 230.436 7.184 231.028 7.184C231.62 7.184 232.108 7.376 232.492 7.76C232.892 8.128 233.092 8.592 233.092 9.152C233.092 9.712 232.892 10.184 232.492 10.568C232.108 10.936 231.62 11.12 231.028 11.12ZM232.684 12.704V26H229.324V12.704H232.684ZM235.14 19.352C235.14 17.976 235.42 16.776 235.98 15.752C236.54 14.712 237.316 13.912 238.308 13.352C239.3 12.776 240.436 12.488 241.716 12.488C243.364 12.488 244.724 12.904 245.796 13.736C246.884 14.552 247.612 15.704 247.98 17.192H244.356C244.164 16.616 243.836 16.168 243.372 15.848C242.924 15.512 242.364 15.344 241.692 15.344C240.732 15.344 239.972 15.696 239.412 16.4C238.852 17.088 238.572 18.072 238.572 19.352C238.572 20.616 238.852 21.6 239.412 22.304C239.972 22.992 240.732 23.336 241.692 23.336C243.052 23.336 243.94 22.728 244.356 21.512H247.98C247.612 22.952 246.884 24.096 245.796 24.944C244.708 25.792 243.348 26.216 241.716 26.216C240.436 26.216 239.3 25.936 238.308 25.376C237.316 24.8 236.54 24 235.98 22.976C235.42 21.936 235.14 20.728 235.14 19.352ZM258.313 26L253.801 20.336V26H250.441V8.24H253.801V18.344L258.265 12.704H262.633L256.777 19.376L262.681 26H258.313ZM276.817 19.064C276.817 19.544 276.785 19.976 276.721 20.36H267.001C267.081 21.32 267.417 22.072 268.009 22.616C268.601 23.16 269.329 23.432 270.193 23.432C271.441 23.432 272.329 22.896 272.857 21.824H276.481C276.097 23.104 275.361 24.16 274.273 24.992C273.185 25.808 271.849 26.216 270.265 26.216C268.985 26.216 267.833 25.936 266.809 25.376C265.801 24.8 265.009 23.992 264.433 22.952C263.873 21.912 263.593 20.712 263.593 19.352C263.593 17.976 263.873 16.768 264.433 15.728C264.993 14.688 265.777 13.888 266.785 13.328C267.793 12.768 268.953 12.488 270.265 12.488C271.529 12.488 272.657 12.76 273.649 13.304C274.657 13.848 275.433 14.624 275.977 15.632C276.537 16.624 276.817 17.768 276.817 19.064ZM273.337 18.104C273.321 17.24 273.009 16.552 272.401 16.04C271.793 15.512 271.049 15.248 270.169 15.248C269.337 15.248 268.633 15.504 268.057 16.016C267.497 16.512 267.153 17.208 267.025 18.104H273.337ZM283.181 15.464V21.896C283.181 22.344 283.285 22.672 283.493 22.88C283.717 23.072 284.085 23.168 284.597 23.168H286.157V26H284.045C281.213 26 279.797 24.624 279.797 21.872V15.464H278.213V12.704H279.797V9.416H283.181V12.704H286.157V15.464H283.181ZM290.278 11.12C289.686 11.12 289.19 10.936 288.79 10.568C288.406 10.184 288.214 9.712 288.214 9.152C288.214 8.592 288.406 8.128 288.79 7.76C289.19 7.376 289.686 7.184 290.278 7.184C290.87 7.184 291.358 7.376 291.742 7.76C292.142 8.128 292.342 8.592 292.342 9.152C292.342 9.712 292.142 10.184 291.742 10.568C291.358 10.936 290.87 11.12 290.278 11.12ZM291.934 12.704V26H288.574V12.704H291.934ZM302.622 12.512C304.206 12.512 305.486 13.016 306.462 14.024C307.438 15.016 307.926 16.408 307.926 18.2V26H304.566V18.656C304.566 17.6 304.302 16.792 303.774 16.232C303.246 15.656 302.526 15.368 301.614 15.368C300.686 15.368 299.95 15.656 299.406 16.232C298.878 16.792 298.614 17.6 298.614 18.656V26H295.254V12.704H298.614V14.36C299.062 13.784 299.63 13.336 300.318 13.016C301.022 12.68 301.79 12.512 302.622 12.512ZM316.329 12.488C317.321 12.488 318.193 12.688 318.945 13.088C319.697 13.472 320.289 13.976 320.721 14.6V12.704H324.105V26.096C324.105 27.328 323.857 28.424 323.361 29.384C322.865 30.36 322.121 31.128 321.129 31.688C320.137 32.264 318.937 32.552 317.529 32.552C315.641 32.552 314.089 32.112 312.873 31.232C311.673 30.352 310.993 29.152 310.833 27.632H314.169C314.345 28.24 314.721 28.72 315.297 29.072C315.889 29.44 316.601 29.624 317.433 29.624C318.409 29.624 319.201 29.328 319.809 28.736C320.417 28.16 320.721 27.28 320.721 26.096V24.032C320.289 24.656 319.689 25.176 318.921 25.592C318.169 26.008 317.305 26.216 316.329 26.216C315.209 26.216 314.185 25.928 313.257 25.352C312.329 24.776 311.593 23.968 311.049 22.928C310.521 21.872 310.257 20.664 310.257 19.304C310.257 17.96 310.521 16.768 311.049 15.728C311.593 14.688 312.321 13.888 313.233 13.328C314.161 12.768 315.193 12.488 316.329 12.488ZM320.721 19.352C320.721 18.536 320.561 17.84 320.241 17.264C319.921 16.672 319.489 16.224 318.945 15.92C318.401 15.6 317.817 15.44 317.193 15.44C316.569 15.44 315.993 15.592 315.465 15.896C314.937 16.2 314.505 16.648 314.169 17.24C313.849 17.816 313.689 18.504 313.689 19.304C313.689 20.104 313.849 20.808 314.169 21.416C314.505 22.008 314.937 22.464 315.465 22.784C316.009 23.104 316.585 23.264 317.193 23.264C317.817 23.264 318.401 23.112 318.945 22.808C319.489 22.488 319.921 22.04 320.241 21.464C320.561 20.872 320.721 20.168 320.721 19.352Z" fill="black"/>
</svg>
